<svg width="45" height="41" viewBox="0 0 45 41" fill="none" xmlns="http://www.w3.org/2000/svg">
<path fill-rule="evenodd" clip-rule="evenodd" d="M19.1133 31.1559C18.7887 31.3604 18.2237 31.569 17.8933 31.7469C17.4853 31.9665 17.0649 32.2611 16.7501 32.4919C16.3702 32.7705 16.0472 33.0571 15.737 33.3678C15.5184 33.5869 15.029 34.105 14.8872 34.3885L14.1713 34.0885C14.4674 33.6837 15.076 33.5394 15.6602 32.1889C16.7729 29.6167 14.963 26.3554 11.7939 26.3192C9.75314 26.2958 8.28893 27.6619 7.75057 29.1598C7.26222 30.5184 7.57156 32.1559 8.45667 33.2347C8.76616 33.6118 9.2015 33.9171 9.32311 34.0679L8.3947 34.5194C8.54509 34.8548 9.33365 35.6144 9.601 35.8666C15.2406 41.1876 23.6259 42.576 30.7225 39.0673C31.8689 38.5005 32.9475 37.7767 33.8569 37.0851C34.4315 36.6483 36.1272 35.1136 36.4798 34.5689L35.5293 34.0864L35.9541 33.6752C38.8619 31.0235 36.8777 26.2587 33.0427 26.3194C30.9973 26.3516 29.5814 27.711 29.0814 29.24C28.1024 32.2335 30.4412 33.7542 30.6725 34.0678L30.1235 34.3362C30.0141 34.1034 29.4687 33.4947 29.2963 33.3282C28.5142 32.5724 27.0068 31.4775 25.9243 31.2059C26.0518 31.0205 25.9255 31.1817 26.0613 31.039L26.5942 30.6079C28.1819 29.3031 28.9803 26.4809 28.2529 24.3001C26.3965 18.735 18.6625 18.8279 16.8294 24.23C16.0241 26.6031 16.8326 29.3433 18.7804 30.8576C18.8378 30.9023 18.8964 30.9478 18.9535 30.9988L19.1132 31.1559H19.1133Z" fill="#FDFDFD"/>
<path fill-rule="evenodd" clip-rule="evenodd" d="M20.2969 0.089662L19.1957 3.99875C18.6161 4.10103 18.0137 4.22728 17.4478 4.39684C16.8466 4.57693 16.9432 4.6681 16.2102 3.84188L14.1551 1.63989C13.1281 1.73678 10.2709 3.64089 9.4243 4.14109L10.4153 8.08991L8.64587 9.70103L4.79161 8.52243L3.31248 10.714C2.94914 11.3147 2.26163 12.4616 2.05433 13.136C2.41675 13.6245 4.2053 15.2935 4.69273 15.837C4.92766 16.099 4.81351 16.1525 4.67523 16.5601C4.48195 17.1297 4.33089 17.6781 4.19908 18.2874L0.240473 19.1992C0.0306016 20.9457 -0.109174 22.7919 0.112393 24.5776L4.00049 25.6611L4.25142 26.8123L7.91712 26.8288C7.65574 25.3459 7.35346 25.0099 7.2939 23.0528C7.25084 21.6374 7.35935 20.2883 7.67034 19.0049C8.26412 16.5541 9.23807 14.7181 10.5267 13.0508C16.4129 5.43458 28.2645 5.29215 34.3303 13.0295C36.9539 16.3761 38.1124 20.579 37.3807 24.9418C37.2732 25.5828 37.0522 26.2374 36.9689 26.8198L40.5207 26.831C40.9097 26.7183 40.1924 26.646 41.4019 26.3826L44.3616 25.7192C44.7667 25.5693 44.4729 25.7146 44.62 25.5477C44.9221 24.843 44.8939 21.154 44.7425 20.246L40.8614 19.1799L40.3291 16.8399L43.2406 14.1593C43.1161 13.2748 41.2061 9.96598 40.6781 9.43268L36.7381 10.4093C36.5022 10.0384 35.4672 8.93653 35.1644 8.74209C35.1976 8.02654 36.2767 5.43616 36.2774 4.79369C35.3482 3.9498 33.1552 2.60712 31.7847 2.04678C31.3988 2.20298 29.4094 4.34433 28.8728 4.79833C28.6958 4.79062 26.8349 4.25739 26.5904 4.16374L25.6787 0.272823C24.2931 -0.135473 21.8202 0.01517 20.297 0.0897449L20.2969 0.089662Z" fill="#F37821"/>
</svg>
